<svg id="Capa_1" data-name="Capa 1" xmlns="http://www.w3.org/2000/svg" viewBox="0 0 143.14 199.98">
  <defs>
    <style>.cls-1 {
      fill: #e9e9e9;
    }

    .cls-2 {
      fill: #34b484;
    }</style>
  </defs>
  <title>1.1</title>
  <path class="cls-1"
        d="M79.28,91.27c-.08-1.89-.22-3.4-.2-4.91.14-15.46.35-30.92.45-46.37a86.5,86.5,0,0,0-.6-10.18,10.23,10.23,0,0,0-10.81-8.73c-5.58.41-9.58,4.84-9.62,11-.07,13.91,0,27.82,0,41.73q0,26.39,0,52.78c0,1.24-.13,2.49-.25,4.66a23.93,23.93,0,0,1-3.76-2.32c-2.88-2.73-5.54-5.69-8.45-8.39-6.47-6-15.32-5.89-21.42.1a15.05,15.05,0,0,0-.21,21.45C39,157,53.05,172.48,68.72,186.15c15.18,13.23,34.21,16,53.68,12.46,16.31-2.92,29.27-11.59,36.39-27A45.38,45.38,0,0,0,162.86,154c.47-22.11.2-44.23.2-66.34q0-19.17,0-38.32c0-6.85-4.17-11.55-10.27-11.52S142.64,42.38,142.61,49c-.05,12.63,0,25.26-.09,37.89,0,1.43-1,2.85-1.5,4.28a48.33,48.33,0,0,1-5.67-4.31c-.57-.57-.12-2.18-.12-3.32,0-20,0-40,0-60,0-5.69-3.9-9.92-9.18-10.4s-10.08,3.35-11,9a29.06,29.06,0,0,0-.2,4.67q0,26.19,0,52.37c0,2.34-.07,4.09-3.23,4.2-3.45.13-3.85-1.48-3.84-4.39.09-22.14,0-44.28,0-66.42A19.47,19.47,0,0,0,107.46,8,10.28,10.28,0,0,0,96.36.08c-5.21.54-9.09,4.75-9.11,10.52-.09,24.12,0,48.25,0,72.38C87.2,88.91,86.39,89.85,79.28,91.27Z"
        transform="translate(-20 -0.02)"/>
  <circle class="cls-2" cx="132.5" cy="47.48" r="10.5"/>
</svg>
