<svg id="Capa_1" data-name="Capa 1" xmlns="http://www.w3.org/2000/svg" viewBox="0 0 143.33 199.98"><defs><style>.cls-1{fill:#e9e9e9;}.cls-2{fill:#34b484;}</style></defs><title>2</title><path class="cls-1" d="M125.1,91.27c.09-1.89.22-3.4.21-4.91-.15-15.46-.36-30.92-.45-46.37a86.5,86.5,0,0,1,.59-10.18,10.25,10.25,0,0,1,10.83-8.73c5.58.41,9.59,4.84,9.63,11,.08,13.91,0,27.82,0,41.73q0,26.39,0,52.78c0,1.24.12,2.49.24,4.66a24.1,24.1,0,0,0,3.77-2.32c2.88-2.73,5.55-5.69,8.46-8.39,6.47-6,15.34-5.89,21.45.1a15,15,0,0,1,.21,21.45c-14.59,14.9-28.7,30.4-44.4,44.07-15.19,13.23-34.25,16-53.75,12.46-16.32-2.92-29.3-11.59-36.43-27A45.39,45.39,0,0,1,41.41,154c-.47-22.11-.2-44.23-.2-66.34q0-19.17,0-38.32c0-6.85,4.17-11.55,10.28-11.52S61.66,42.38,61.69,49c.05,12.63,0,25.26.09,37.89,0,1.43,1,2.85,1.5,4.28A48.44,48.44,0,0,0,69,86.9c.57-.57.12-2.18.12-3.32,0-20,0-40,0-60a10.07,10.07,0,0,1,9.19-10.4c5.35-.49,10.09,3.35,11,9a29.06,29.06,0,0,1,.19,4.67q0,26.19,0,52.37c0,2.34.06,4.09,3.23,4.2,3.46.13,3.85-1.48,3.84-4.39-.09-22.14,0-44.28,0-66.42A19.47,19.47,0,0,1,96.88,8,10.3,10.3,0,0,1,108,.08c5.22.54,9.1,4.75,9.12,10.52.09,24.12,0,48.25,0,72.38C117.17,88.91,118,89.85,125.1,91.27Z" transform="translate(-41.14 -0.02)"/><circle class="cls-2" cx="38.36" cy="23.48" r="10.5"/></svg>